<svg width="360" height="82" viewBox="0 0 360 82" fill="none" xmlns="http://www.w3.org/2000/svg">
<path d="M40.5765 0C18.2018 0 0 18.203 0 40.5777C0 62.9524 18.203 81.1554 40.5765 81.1554C62.9499 81.1554 81.1542 62.9524 81.1542 40.5777C81.1542 18.203 62.9512 0 40.5765 0ZM40.5765 78.3445C19.7525 78.3445 2.81093 61.4029 2.81093 40.5777C2.81093 19.7525 19.7525 2.81093 40.5765 2.81093C61.4004 2.81093 78.3433 19.7525 78.3433 40.5777C78.3433 61.4029 61.4004 78.3445 40.5765 78.3445Z" fill="white"/>
<path d="M28.9259 8.92012C19.8765 12.3072 12.5568 19.3695 8.8436 28.2963C8.54571 29.0134 8.88526 29.836 9.60117 30.1339C9.77769 30.2074 9.96035 30.2418 10.1406 30.2418C10.691 30.2418 11.2144 29.9157 11.4387 29.3763C14.854 21.1654 21.5866 14.6695 29.9103 11.5533C30.6372 11.2812 31.0062 10.4721 30.734 9.74391C30.4619 9.01697 29.6504 8.64798 28.9259 8.92012Z" fill="white"/>
<path d="M110.794 19.4176H110.768C116.417 19.4176 121.15 24.0989 121.255 29.6955C121.255 30.82 120.863 32.1276 120.523 33.1738C125.335 35.266 129.65 40.0257 129.65 46.695C129.65 50.7224 128.211 54.1745 125.335 57.0513C122.458 59.9282 119.006 61.3665 114.978 61.3665H100.307V19.4184L110.794 19.4176ZM108.676 32.8344H110.768C112.18 32.8344 113.305 31.7621 113.305 30.3761C113.305 28.9639 112.18 27.787 110.768 27.787H108.676V32.8344ZM114.953 52.9714C118.405 52.9714 121.256 50.1469 121.256 46.721C121.256 44.9688 120.628 43.4781 119.399 42.249C118.17 41.0199 116.679 40.9414 114.953 40.9414H108.676V52.9715L114.953 52.9714ZM132.814 19.2877H141.261V52.9983H158.103V61.4455H132.814L132.814 19.2877ZM181.484 19.0775C187.342 19.0775 192.363 21.1697 196.548 25.3541C200.732 29.5384 202.824 34.5597 202.824 40.4178C202.824 46.2759 200.732 51.2971 196.548 55.4547C192.363 59.6123 187.342 61.7051 181.484 61.7051C175.626 61.7051 170.605 59.613 166.447 55.4547C162.29 51.2965 160.197 46.2752 160.197 40.4178C160.197 34.5603 162.289 29.5384 166.447 25.3541C170.605 21.1697 175.627 19.0775 181.484 19.0775ZM181.484 27.5775C177.954 27.5775 174.946 28.8328 172.461 31.3434C169.977 33.854 168.722 36.8615 168.722 40.366C168.722 43.8965 169.977 46.904 172.461 49.3885C174.946 51.873 177.954 53.1283 181.484 53.1283C184.988 53.1283 187.996 51.873 190.507 49.3885C193.017 46.904 194.273 43.8965 194.273 40.366C194.273 36.8615 193.017 33.854 190.507 31.3434C187.996 28.8328 184.988 27.5775 181.484 27.5775ZM218.437 53.1283L218.411 53.076C220.738 53.076 222.674 51.1408 222.674 48.8132C222.674 47.0086 221.967 45.858 220.529 45.3349C217.495 44.2104 218.228 44.4719 215.272 43.4519C212.16 42.3796 209.283 40.2613 207.348 37.6199C206.197 36.0507 205.622 34.1154 205.622 31.7879C205.622 28.2834 206.877 25.2759 209.388 22.7653C211.899 20.2547 214.906 18.9994 218.437 18.9994C221.941 18.9994 224.949 20.2547 227.459 22.7653C229.97 25.2759 231.225 28.2834 231.225 31.7879H222.726C222.726 29.4864 220.79 27.5511 218.489 27.5511C216.161 27.5511 214.226 29.4864 214.226 31.814C214.226 33.3308 214.828 34.4815 216.057 35.266C218.567 36.8874 218.28 36.5737 221.287 37.4628C224.53 38.4043 227.459 40.418 229.473 43.007C230.65 44.5239 231.251 46.4854 231.251 48.8652C231.251 52.3957 229.996 55.4032 227.485 57.9138C224.975 60.4245 221.967 61.6798 218.463 61.6798C214.932 61.6798 211.925 60.4245 209.414 57.9138C206.903 55.4032 205.648 52.3957 205.648 48.8652H214.174C214.174 51.2188 216.083 53.1283 218.437 53.1283ZM247.649 53.1283L247.623 53.076C249.95 53.076 251.886 51.1408 251.886 48.8132C251.886 47.0086 251.18 45.858 249.741 45.3349C246.707 44.2104 247.44 44.4719 244.484 43.4519C241.372 42.3796 238.496 40.2613 236.56 37.6199C235.41 36.0507 234.834 34.1154 234.834 31.7879C234.834 28.2834 236.089 25.2759 238.6 22.7653C241.111 20.2547 244.118 18.9994 247.649 18.9994C251.153 18.9994 254.161 20.2547 256.671 22.7653C259.182 25.2759 260.437 28.2834 260.437 31.7879H251.938C251.938 29.4864 250.002 27.5511 247.701 27.5511C245.373 27.5511 243.438 29.4864 243.438 31.814C243.438 33.3308 244.04 34.4815 245.269 35.266C247.779 36.8874 247.492 36.5737 250.499 37.4628C253.742 38.4043 256.671 40.418 258.685 43.007C259.862 44.5239 260.463 46.4854 260.463 48.8652C260.463 52.3957 259.208 55.4032 256.697 57.9138C254.187 60.4245 251.179 61.6798 247.675 61.6798C244.144 61.6798 241.137 60.4245 238.626 57.9138C236.116 55.4032 234.86 52.3957 234.86 48.8652H243.386C243.386 51.2188 245.295 53.1283 247.649 53.1283ZM263.811 57.025C263.811 54.0435 266.217 51.6376 269.198 51.6376C272.18 51.6376 274.586 54.0437 274.586 57.025C274.586 60.0062 272.18 62.4123 269.198 62.4123C266.217 62.4123 263.811 60.0062 263.811 57.025ZM292.841 47.5058H300.294L296.58 38.7447L292.841 47.5058ZM289.388 54.9589L289.283 55.2727L286.537 61.3401H285.073H284.733H279.241H277.436L296.553 18.5029L315.722 61.3401H313.918H308.426H308.059H306.595L303.875 55.2466L303.744 54.9589H289.386L289.388 54.9589ZM318.888 18.5031L339.444 46.6957L360 18.5031V61.4447H351.553V44.0538L339.445 60.7645L327.336 44.0538V61.4447H318.889L318.888 18.5031Z" fill="white"/>
</svg>
