<svg width="240" height="55" viewBox="0 0 240 55" fill="none" xmlns="http://www.w3.org/2000/svg">
<path d="M27.051 0C12.1345 0 0 12.1353 0 27.0518C0 41.9682 12.1354 54.1036 27.051 54.1036C41.9666 54.1036 54.1028 41.9682 54.1028 27.0518C54.1028 12.1353 41.9674 0 27.051 0ZM27.051 52.2296C13.1684 52.2296 1.87395 40.9352 1.87395 27.0518C1.87395 13.1683 13.1684 1.87395 27.051 1.87395C40.9336 1.87395 52.2288 13.1683 52.2288 27.0518C52.2288 40.9352 40.9336 52.2296 27.051 52.2296Z" fill="white"/>
<path d="M19.2839 5.94667C13.251 8.20473 8.37118 12.9129 5.89573 18.8641C5.69714 19.3422 5.9235 19.8906 6.40078 20.0892C6.51846 20.1382 6.64023 20.1611 6.76037 20.1611C7.12731 20.1611 7.47627 19.9437 7.62583 19.5841C9.90269 14.1102 14.391 9.77957 19.9402 7.70212C20.4248 7.52069 20.6708 6.98131 20.4894 6.49586C20.3079 6.01123 19.7669 5.76524 19.2839 5.94667Z" fill="white"/>
<path d="M73.8627 12.945H73.8452C77.6112 12.945 80.7669 16.0658 80.8366 19.7969C80.8366 20.5466 80.5751 21.4184 80.3484 22.1158C83.5565 23.5106 86.4332 26.6837 86.4332 31.1299C86.4332 33.8149 85.4743 36.1163 83.5564 38.0341C81.6385 39.952 79.3371 40.9109 76.6521 40.9109H66.8712V12.9455L73.8627 12.945ZM72.4504 21.8895H73.8452C74.7867 21.8895 75.5363 21.1747 75.5363 20.2507C75.5363 19.3092 74.7866 18.5246 73.8452 18.5246H72.4504V21.8895ZM76.6352 35.3142C78.9366 35.3142 80.837 33.4312 80.837 31.1472C80.837 29.9791 80.4185 28.9853 79.5991 28.1659C78.7797 27.3465 77.7858 27.2942 76.6352 27.2942H72.4508V35.3142L76.6352 35.3142ZM88.5428 12.8584H94.1742V35.3321H105.402V40.9636H88.5424L88.5428 12.8584ZM120.989 12.7183C124.895 12.7183 128.242 14.1131 131.032 16.9026C133.821 19.6922 135.216 23.0397 135.216 26.9451C135.216 30.8505 133.821 34.198 131.032 36.9697C128.242 39.7415 124.895 41.1367 120.989 41.1367C117.084 41.1367 113.736 39.7419 110.965 36.9697C108.193 34.1976 106.798 30.8501 106.798 26.9451C106.798 23.0401 108.193 19.6922 110.965 16.9026C113.737 14.1131 117.084 12.7183 120.989 12.7183ZM120.989 18.3849C118.636 18.3849 116.631 19.2218 114.974 20.8955C113.318 22.5693 112.481 24.5743 112.481 26.9106C112.481 29.2642 113.318 31.2693 114.974 32.9256C116.631 34.5819 118.636 35.4188 120.989 35.4188C123.326 35.4188 125.331 34.5819 127.004 32.9256C128.678 31.2693 129.515 29.2642 129.515 26.9106C129.515 24.5743 128.678 22.5693 127.004 20.8955C125.331 19.2218 123.326 18.3849 120.989 18.3849ZM145.625 35.4188L145.607 35.3839C147.159 35.3839 148.449 34.0938 148.449 32.5421C148.449 31.339 147.978 30.5719 147.019 30.2232C144.997 29.4735 145.485 29.6478 143.515 28.9678C141.44 28.253 139.522 26.8408 138.232 25.0798C137.465 24.0337 137.081 22.7435 137.081 21.1918C137.081 18.8555 137.918 16.8505 139.592 15.1768C141.266 13.503 143.271 12.6662 145.624 12.6662C147.961 12.6662 149.966 13.503 151.639 15.1768C153.313 16.8505 154.15 18.8555 154.15 21.1918H148.484C148.484 19.6575 147.194 18.3673 145.659 18.3673C144.108 18.3673 142.817 19.6575 142.817 21.2092C142.817 22.2204 143.218 22.9876 144.038 23.5106C145.712 24.5915 145.52 24.3824 147.525 24.9751C149.687 25.6028 151.639 26.9452 152.982 28.6713C153.767 29.6825 154.167 30.9902 154.167 32.5767C154.167 34.9304 153.331 36.9354 151.657 38.6091C149.983 40.2829 147.978 41.1198 145.642 41.1198C143.288 41.1198 141.283 40.2829 139.609 38.6091C137.936 36.9354 137.099 34.9304 137.099 32.5767H142.783C142.783 34.1458 144.055 35.4188 145.625 35.4188ZM165.099 35.4188L165.082 35.3839C166.634 35.3839 167.924 34.0938 167.924 32.5421C167.924 31.339 167.453 30.5719 166.494 30.2232C164.472 29.4735 164.96 29.6478 162.99 28.9678C160.915 28.253 158.997 26.8408 157.707 25.0798C156.94 24.0337 156.556 22.7435 156.556 21.1918C156.556 18.8555 157.393 16.8505 159.067 15.1768C160.74 13.503 162.745 12.6662 165.099 12.6662C167.435 12.6662 169.44 13.503 171.114 15.1768C172.788 16.8505 173.625 18.8555 173.625 21.1918H167.958C167.958 19.6575 166.668 18.3673 165.134 18.3673C163.582 18.3673 162.292 19.6575 162.292 21.2092C162.292 22.2204 162.693 22.9876 163.513 23.5106C165.186 24.5915 164.995 24.3824 167 24.9751C169.161 25.6028 171.114 26.9452 172.457 28.6713C173.241 29.6825 173.642 30.9902 173.642 32.5767C173.642 34.9304 172.805 36.9354 171.132 38.6091C169.458 40.2829 167.453 41.1198 165.117 41.1198C162.763 41.1198 160.758 40.2829 159.084 38.6091C157.41 36.9354 156.573 34.9304 156.573 32.5767H162.257C162.257 34.1458 163.53 35.4188 165.099 35.4188ZM175.874 38.0166C175.874 36.0289 177.478 34.425 179.466 34.425C181.453 34.425 183.057 36.029 183.057 38.0166C183.057 40.0041 181.453 41.6081 179.466 41.6081C177.478 41.6081 175.874 40.0041 175.874 38.0166ZM195.227 31.6704H200.196L197.72 25.8297L195.227 31.6704ZM192.925 36.6392L192.856 36.8484L191.025 40.8933H190.048H189.822H186.16H184.957L197.702 12.3352L210.481 40.8933H209.278H205.617H205.373H204.396L202.583 36.831L202.496 36.6392H192.924L192.925 36.6392ZM212.592 12.3353L226.296 31.1304L240 12.3353V40.9631H234.369V29.3691L226.296 40.5096L218.224 29.3691V40.9631H212.592L212.592 12.3353Z" fill="white"/>
</svg>
