<svg width="129" height="29" viewBox="0 0 129 29" fill="none" xmlns="http://www.w3.org/2000/svg">
<path d="M14.4996 0C6.50422 0 0 6.50465 0 14.5C0 22.4953 6.50466 29 14.4996 29C22.4945 29 28.9996 22.4953 28.9996 14.5C28.9996 6.50465 22.4949 0 14.4996 0ZM14.4996 27.9955C7.05835 27.9955 1.00446 21.9416 1.00446 14.5C1.00446 7.05835 7.05835 1.00446 14.4996 1.00446C21.9408 1.00446 27.9951 7.05835 27.9951 14.5C27.9951 21.9416 21.9408 27.9955 14.4996 27.9955Z" fill="white"/>
<path d="M10.3364 3.18752C7.10265 4.39786 4.48704 6.92149 3.16018 10.1114C3.05373 10.3677 3.17506 10.6616 3.43088 10.768C3.49396 10.7943 3.55923 10.8066 3.62363 10.8066C3.82031 10.8066 4.00736 10.6901 4.08752 10.4973C5.30794 7.56323 7.71374 5.24199 10.6881 4.12846C10.9479 4.03121 11.0797 3.7421 10.9825 3.48189C10.8852 3.22213 10.5952 3.09027 10.3364 3.18752Z" fill="white"/>
<path d="M39.591 6.93867H39.5816C41.6002 6.93867 43.2917 8.61147 43.3291 10.6114C43.3291 11.0132 43.1889 11.4805 43.0674 11.8543C44.7869 12.6019 46.3289 14.3028 46.3289 16.6859C46.3289 18.1251 45.8149 19.3587 44.7869 20.3867C43.7589 21.4147 42.5253 21.9287 41.0862 21.9287H35.8435V6.93896L39.591 6.93867ZM38.834 11.733H39.5816C40.0863 11.733 40.4881 11.3498 40.4881 10.8546C40.4881 10.3499 40.0862 9.92939 39.5816 9.92939H38.834V11.733ZM41.0771 18.9288C42.3106 18.9288 43.3293 17.9195 43.3293 16.6952C43.3293 16.0691 43.105 15.5364 42.6658 15.0972C42.2265 14.658 41.6938 14.63 41.0771 14.63H38.8342V18.9288L41.0771 18.9288ZM47.4597 6.89226H50.4782V18.9384H56.4964V21.9569H47.4595L47.4597 6.89226ZM64.8513 6.81714C66.9446 6.81714 68.7389 7.56476 70.2341 9.06C71.7294 10.5552 72.477 12.3495 72.477 14.4429C72.477 16.5362 71.7294 18.3305 70.2341 19.8161C68.7389 21.3018 66.9446 22.0497 64.8513 22.0497C62.758 22.0497 60.9637 21.302 59.478 19.8161C57.9923 18.3302 57.2445 16.5359 57.2445 14.4429C57.2445 12.3498 57.9921 10.5552 59.478 9.06C60.9639 7.56476 62.7582 6.81714 64.8513 6.81714ZM64.8513 9.85451C63.5897 9.85451 62.515 10.3031 61.6272 11.2002C60.7394 12.0974 60.2908 13.1721 60.2908 14.4243C60.2908 15.6859 60.7394 16.7606 61.6272 17.6484C62.515 18.5363 63.5897 18.9848 64.8513 18.9848C66.1036 18.9848 67.1783 18.5363 68.0754 17.6484C68.9725 16.7606 69.4211 15.6859 69.4211 14.4243C69.4211 13.1721 68.9725 12.0974 68.0754 11.2002C67.1783 10.3031 66.1036 9.85451 64.8513 9.85451ZM78.056 18.9848L78.0466 18.9661C78.8784 18.9661 79.5699 18.2746 79.5699 17.4429C79.5699 16.798 79.3176 16.3869 78.8036 16.1999C77.7195 15.7981 77.9812 15.8915 76.9252 15.527C75.8131 15.1439 74.7851 14.3869 74.0936 13.443C73.6824 12.8823 73.4768 12.1908 73.4768 11.359C73.4768 10.1068 73.9253 9.03207 74.8225 8.13493C75.7196 7.23779 76.7943 6.78921 78.0559 6.78921C79.3082 6.78921 80.3829 7.23779 81.28 8.13493C82.1772 9.03207 82.6257 10.1068 82.6257 11.359H79.5885C79.5885 10.5366 78.897 9.8451 78.0746 9.8451C77.2428 9.8451 76.5513 10.5366 76.5513 11.3684C76.5513 11.9104 76.7662 12.3216 77.2055 12.6019C78.1026 13.1813 77.9998 13.0692 79.0745 13.3869C80.2334 13.7234 81.28 14.4429 81.9996 15.3681C82.4201 15.9101 82.6351 16.611 82.6351 17.4614C82.6351 18.723 82.1865 19.7977 81.2894 20.6949C80.3922 21.592 79.3175 22.0406 78.0652 22.0406C76.8036 22.0406 75.7289 21.592 74.8318 20.6949C73.9347 19.7977 73.4861 18.723 73.4861 17.4614H76.5326C76.5326 18.3025 77.2149 18.9848 78.056 18.9848ZM88.4946 18.9848L88.4853 18.9661C89.317 18.9661 90.0085 18.2746 90.0085 17.4429C90.0085 16.798 89.7562 16.3869 89.2422 16.1999C88.1582 15.7981 88.4198 15.8915 87.3638 15.527C86.2517 15.1439 85.2237 14.3869 84.5322 13.443C84.121 12.8823 83.9154 12.1908 83.9154 11.359C83.9154 10.1068 84.364 9.03207 85.2611 8.13493C86.1582 7.23779 87.2329 6.78921 88.4945 6.78921C89.7468 6.78921 90.8215 7.23779 91.7187 8.13493C92.6158 9.03207 93.0644 10.1068 93.0644 11.359H90.0271C90.0271 10.5366 89.3356 9.8451 88.5132 9.8451C87.6815 9.8451 86.9899 10.5366 86.9899 11.3684C86.9899 11.9104 87.2049 12.3216 87.6441 12.6019C88.5412 13.1813 88.4385 13.0692 89.5132 13.3869C90.672 13.7234 91.7187 14.4429 92.4382 15.3681C92.8588 15.9101 93.0737 16.611 93.0737 17.4614C93.0737 18.723 92.6251 19.7977 91.728 20.6949C90.8308 21.592 89.7561 22.0406 88.5039 22.0406C87.2423 22.0406 86.1676 21.592 85.2704 20.6949C84.3733 19.7977 83.9247 18.723 83.9247 17.4614H86.9713C86.9713 18.3025 87.6535 18.9848 88.4946 18.9848ZM94.27 20.3772C94.27 19.3119 95.1297 18.4521 96.1951 18.4521C97.2604 18.4521 98.1202 19.3119 98.1202 20.3772C98.1202 21.4426 97.2604 22.3023 96.1951 22.3023C95.1297 22.3023 94.27 21.4426 94.27 20.3772ZM104.643 16.9757H107.307L105.98 13.845L104.643 16.9757ZM103.41 19.639L103.372 19.7511L102.391 21.9192H101.868H101.746H99.7836H99.1387L105.97 6.61182L112.82 21.9192H112.175H110.212H110.082H109.558L108.586 19.7418L108.54 19.639H103.409L103.41 19.639ZM113.951 6.61187L121.297 16.6862L128.642 6.61187V21.9566H125.624V15.7422L121.297 21.7135L116.97 15.7422V21.9566H113.951L113.951 6.61187Z" fill="white"/>
</svg>
